<?xml version="1.0" standalone="no"?>
<!DOCTYPE svg PUBLIC "-//W3C//DTD SVG 20010904//EN"
 "http://www.w3.org/TR/2001/REC-SVG-20010904/DTD/svg10.dtd">
<svg version="1.0" xmlns="http://www.w3.org/2000/svg"
 width="512.000000pt" height="512.000000pt" viewBox="0 0 512.000000 512.000000"
 preserveAspectRatio="xMidYMid meet">
<metadata>
Created by potrace 1.11, written by Peter Selinger 2001-2013
</metadata>
<g transform="translate(0.000000,512.000000) scale(0.100000,-0.100000)"
fill="#000000" stroke="none">
<path d="M3894 4948 c-32 -11 -71 -30 -87 -44 -16 -13 -33 -24 -38 -24 -6 0
-8 -4 -5 -9 3 -5 -1 -15 -10 -22 -8 -7 -24 -29 -34 -48 -60 -120 -35 -270 62
-361 65 -63 132 -88 223 -85 115 3 213 69 266 179 25 53 28 69 25 135 -4 88
-22 136 -73 192 -86 95 -209 127 -329 87z m174 -221 c36 -36 34 -98 -4 -138
-61 -63 -174 -17 -174 71 0 29 29 76 54 89 33 17 96 6 124 -22z"/>
<path d="M3365 4741 c-69 -20 -178 -67 -217 -93 -14 -10 -31 -18 -37 -18 -6 0
-11 -4 -11 -8 0 -4 -13 -15 -29 -25 -53 -31 -181 -159 -246 -245 -62 -82 -158
-255 -188 -337 -8 -22 -24 -65 -36 -96 -23 -64 -76 -264 -86 -324 -38 -241
-54 -406 -56 -585 -2 -128 -2 -124 27 -159 22 -26 33 -31 71 -31 36 0 50 6 74
29 16 16 29 40 30 53 0 13 2 70 4 128 14 498 115 895 295 1160 132 195 342
343 516 364 102 13 143 126 67 186 -32 25 -95 25 -178 1z"/>
<path d="M685 4186 c-84 -26 -153 -83 -193 -160 -22 -44 -26 -64 -26 -136 0
-75 3 -91 29 -139 101 -184 341 -221 489 -76 129 127 116 343 -26 455 -27 22
-56 40 -64 40 -9 0 -13 4 -10 8 2 4 -3 8 -12 9 -120 9 -152 9 -187 -1z m156
-222 c47 -42 29 -139 -30 -164 -88 -36 -174 49 -133 132 32 63 111 79 163 32z"/>
<path d="M1243 3985 c-76 -32 -88 -133 -22 -177 15 -9 60 -18 114 -22 122 -9
148 -14 234 -43 197 -67 354 -218 441 -421 37 -87 76 -244 85 -337 9 -104 14
-123 42 -145 50 -39 128 -20 156 38 18 36 11 140 -18 295 -23 119 -95 290
-171 405 -114 170 -275 295 -462 358 -142 47 -344 72 -399 49z"/>
<path d="M4043 3939 c-94 -17 -177 -80 -222 -171 -28 -54 -30 -68 -28 -142 3
-68 8 -90 32 -134 32 -59 75 -101 138 -134 62 -33 203 -33 267 1 231 121 226
445 -10 559 -38 18 -130 29 -177 21z m119 -226 c10 -9 23 -33 29 -53 23 -77
-45 -140 -132 -121 -12 2 -46 37 -57 57 -21 39 -1 99 41 125 37 22 90 19 119
-8z"/>
<path d="M3497 3684 c-1 -1 -28 -4 -59 -8 -71 -7 -63 -5 -173 -42 -184 -62
-317 -179 -407 -359 -53 -105 -78 -195 -93 -333 -12 -107 115 -168 181 -87 11
14 21 42 23 63 21 278 160 464 401 536 30 9 96 19 145 23 50 3 103 12 118 20
66 33 68 140 4 175 -18 9 -131 20 -140 12z"/>
<path d="M1976 2818 c-2 -7 -16 -69 -31 -138 -63 -296 -202 -730 -311 -968
-13 -29 -24 -55 -24 -57 0 -5 -99 -203 -129 -260 -254 -473 -589 -756 -921
-778 l-45 -3 -3 -103 -3 -103 78 6 c298 25 570 189 819 497 254 312 494 820
650 1369 19 69 38 132 41 140 3 8 7 28 9 44 3 16 6 31 8 33 2 2 28 -6 57 -18
132 -52 239 -71 394 -71 152 1 248 19 373 67 34 14 64 25 66 25 1 0 9 -26 16
-57 8 -32 15 -62 16 -68 39 -168 194 -607 276 -785 135 -293 257 -500 397
-675 54 -67 245 -265 256 -265 3 0 29 -18 58 -39 151 -114 329 -182 520 -198
l68 -5 -3 102 c-2 83 -6 104 -18 105 -8 1 -41 5 -73 9 -75 8 -157 32 -228 66
-82 39 -189 112 -182 123 3 6 1 7 -5 3 -9 -5 -136 113 -203 189 -74 86 -172
232 -248 368 -78 141 -182 363 -185 394 0 11 -4 19 -7 17 -4 -2 -9 4 -12 14
-3 9 -19 53 -37 97 -96 247 -209 632 -251 855 -6 36 -14 68 -18 72 -3 4 -46
-20 -96 -53 -189 -125 -288 -155 -510 -153 -176 2 -287 37 -437 138 -123 82
-118 79 -122 64z"/>
</g>
</svg>
